<svg width="250" height="250" viewBox="0 0 250 250" fill="none" xmlns="http://www.w3.org/2000/svg">
<path opacity="0.4" d="M125 229.271C182.529 229.271 229.167 182.634 229.167 125.104C229.167 67.5745 182.529 20.9375 125 20.9375C67.4703 20.9375 20.8333 67.5745 20.8333 125.104C20.8333 182.634 67.4703 229.271 125 229.271Z" fill="#B1B1B1"/>
<path d="M125 72.291C103.437 72.291 85.9375 89.791 85.9375 111.353C85.9375 132.499 102.5 149.686 124.479 150.311C124.792 150.311 125.208 150.311 125.417 150.311C125.625 150.311 125.937 150.311 126.146 150.311C126.25 150.311 126.354 150.311 126.354 150.311C147.396 149.582 163.958 132.499 164.062 111.353C164.062 89.791 146.562 72.291 125 72.291Z" fill="#31304D"/>
<path d="M195.632 201.667C177.091 218.75 152.299 229.271 125.007 229.271C97.7156 229.271 72.924 218.75 54.3823 201.667C56.8823 192.188 63.6531 183.542 73.549 176.875C101.986 157.917 148.236 157.917 176.466 176.875C186.466 183.542 193.132 192.188 195.632 201.667Z" fill="#31304D"/>
</svg>
